<?xml version="1.0" encoding="UTF-8" standalone="no"?>
<!DOCTYPE svg PUBLIC "-//W3C//DTD SVG 1.1//EN" "http://www.w3.org/Graphics/SVG/1.1/DTD/svg11.dtd">
<svg width="456" height="456" viewBox="0 0 456 456" version="1.1" xmlns="http://www.w3.org/2000/svg" xmlns:xlink="http://www.w3.org/1999/xlink" xml:space="preserve" xmlns:serif="http://www.serif.com/">
   <path fill="#FFC107" d="m322.13828,176.3699l-133.45612,79.61903c-2.49836,1.48378 -5.73735,0.68201 -7.22385,-1.80917l-51.43279,-85.91076c-1.48649,-2.49378 -0.68587,-5.72686 1.81249,-7.21064l133.45872,-79.62163c2.49575,-1.48378 5.73735,-0.68202 7.22385,1.81177l51.43279,85.91076c1.51518,2.49118 0.68326,5.72686 -1.81509,7.21064l0.00001,0zm0,0" />
   <path fill="#FF8F00" d="m138.76716,182.84387l142.53157,-85.0231l21.12129,35.28009l-142.52896,85.0231l-21.12391,-35.28008l0,0.00001l0.00001,-0.00001zm0,0" />
   <path fill="#F44336" d="m332.27776,326.0545l-216.34527,0c-5.82602,0 -10.55413,-4.71945 -10.55413,-10.53482l0,-155.35159c0,-5.81798 4.72811,-10.53482 10.55413,-10.53482l216.31397,0c5.82863,0 10.55413,4.71685 10.55413,10.53482l0,155.38022c0.0313,5.81537 -4.6968,10.50618 -10.52283,10.50618l0,0.00001zm0,0" />
   <path fill="#E53935" d="m342.83189,315.54831l0,-67.39217l-87.14,10.05846l50.8095,67.8399l25.74508,0c5.85732,0 10.58542,-4.69082 10.58542,-10.50618l0.00001,0zm0,0" />
   <path fill="#FFEBEE" d="m278.94121,268.66092l66.41772,0c2.91301,0 5.26272,-2.34541 5.26272,-5.2531l0,-51.10185c0,-2.90768 -2.3497,-5.25049 -5.26272,-5.25049l-66.41772,0c-17.03473,0 -30.85915,13.79914 -30.85915,30.80271c0,17.00358 13.82443,30.80272 30.85915,30.80272zm0,0" />
   <path fill="#F44336" d="m263.86761,237.8582c0,7.26011 5.89643,13.14576 13.17244,13.14576c7.27341,0 13.16985,-5.88565 13.16985,-13.14576c0,-7.2601 -5.89643,-13.14575 -13.16985,-13.14575c-7.27601,0 -13.17244,5.88565 -13.17244,13.14575zm0,0" />
   <path fill="#D32F2F" d="m115.93248,149.63326c-5.82602,0 -10.55413,4.71685 -10.55413,10.53482l0,155.38022c0,5.81537 4.72811,10.53482 10.55413,10.53482l33.41749,0l0,-176.44987l-33.41749,0zm0,0" />
</svg>